<?xml version="1.0" encoding="UTF-8" standalone="no"?>
<!-- Created with Inkscape (http://www.inkscape.org/) -->

<svg
   version="1.1"
   id="svg1"
   width="2480.9602"
   height="936.94702"
   viewBox="0 0 2480.9602 936.94702"
   xmlns="http://www.w3.org/2000/svg"
   xmlns:svg="http://www.w3.org/2000/svg">
  <defs
     id="defs1" />
  <g
     id="g1"
     transform="translate(-107.48912,-172.24477)">
    <path
       style="fill:#000000"
       d="m 2026.1816,1107.2728 c -6.2914,-2.4583 -10.9517,-6.0911 -14.5815,-11.3668 -1.6191,-2.3533 -9.112,-16.4023 -16.6509,-31.22 -7.5389,-14.8177 -17.1892,-33.6913 -21.4451,-41.9413 -17.1042,-33.15587 -45.345,-90.14327 -54.0163,-108.99997 -1.5175,-3.3 -5.4607,-11.625 -8.7626,-18.49997 -15.4588,-32.18758 -19.0807,-39.7811 -20.7479,-43.5 -0.9862,-2.2 -4.6495,-10.00156 -8.1407,-17.33679 -3.4911,-7.33523 -6.3475,-13.48987 -6.3475,-13.67697 0,-0.1871 -1.6167,-3.86055 -3.5927,-8.16321 -1.976,-4.30267 -4.1937,-9.17303 -4.9283,-10.82303 -0.7346,-1.65 -6.0928,-13.48146 -11.9073,-26.29213 -5.8144,-12.81067 -10.5717,-23.49626 -10.5717,-23.74577 0,-0.24951 -1.575,-3.86342 -3.5,-8.03091 -1.925,-4.16749 -3.5,-7.76749 -3.5,-8 0,-0.23251 -1.575,-3.83251 -3.5,-8 -1.925,-4.16749 -3.5,-7.74919 -3.5,-7.95932 0,-0.21014 -1.3001,-3.21478 -2.8892,-6.67697 -4.4687,-9.73591 -6.5649,-14.5511 -10.5764,-24.2949 -2.0379,-4.95 -4.3214,-10.35 -5.0744,-12 -0.7529,-1.65 -2.2864,-5.37151 -3.4078,-8.27002 -6.1086,-15.79004 -8.5431,-17.89075 -18.0522,-15.57699 -3.025,0.73605 -7.3,1.73617 -9.5,2.22249 -2.2,0.48633 -13.9,3.45977 -26,6.60766 -12.1,3.14788 -23.958,6.12186 -26.3511,6.60883 -4.5375,0.92332 -10.1932,2.28128 -16.1489,3.87739 -1.925,0.5159 -8.225,2.05454 -14,3.41921 -5.775,1.36466 -21.525,5.25932 -35,8.65478 -13.475,3.39547 -29.225,7.29667 -35,8.66934 -5.775,1.37266 -12.075,2.87685 -14,3.34264 -1.925,0.46579 -5.525,1.29449 -8,1.84156 -13.404,2.96277 -24.7909,6.31929 -26.9949,7.95725 -2.9896,2.22173 -5.2023,7.49978 -12.0094,28.64586 -2.8328,8.8 -8.233,24.775 -12.0003,35.5 -3.7674,10.725 -7.3998,21.075 -8.0721,23 -0.6723,1.925 -1.5794,4.4 -2.0157,5.5 -0.4363,1.1 -2.4272,6.725 -4.424,12.5 -4.3548,12.59389 -8.3142,23.72043 -9.4693,26.60953 -0.4639,1.16024 -4.0674,10.61024 -8.0078,21 -3.9404,10.38976 -7.5388,19.79047 -7.9963,20.89047 -0.4576,1.1 -2.5004,6.5 -4.5395,12 -2.0391,5.5 -6.096,15.84997 -9.0151,22.99997 -2.9192,7.15 -7.1637,17.725 -9.4322,23.5 -4.5609,11.6108 -5.2615,13.3538 -6.8337,17 -0.5929,1.375 -3.7909,9.025 -7.1067,17 -16.3877,39.41477 -18.3091,42.97417 -25.9184,48.01437 -14.2268,9.4235 -32.8398,7.0963 -35.7425,-4.4689 -0.7955,-3.1697 2.2918,-12.7134 8.7104,-26.92617 2.7619,-6.1156 7.9483,-18.3193 11.5253,-27.1193 3.5771,-8.8 6.8899,-16.9 7.3619,-18 4.2259,-9.8489 11.9319,-29.0685 17.4412,-43.5 5.9659,-15.62792 7.8489,-20.53363 10.5557,-27.49997 0.4273,-1.1 1.6864,-4.25 2.7979,-7 1.1115,-2.75 3.6639,-9.5 5.6721,-15 2.0082,-5.5 4.0342,-10.9 4.5022,-12 0.468,-1.1 1.9779,-5.15 3.3553,-9 1.3774,-3.85 5.679,-15.85912 9.559,-26.68694 3.8801,-10.82781 10.2676,-29.50281 14.1945,-41.5 3.9269,-11.99718 7.3778,-22.48806 7.6689,-23.31306 4.771,-13.52567 6.0099,-17.5529 5.6025,-18.21199 -0.2678,-0.43341 -1.4729,-0.79221 -2.678,-0.79734 -1.8237,-0.008 -21.1486,4.45984 -34.691,8.01998 -1.925,0.50606 -13.85,3.41866 -26.5,6.47243 -12.65,3.05377 -27.275,6.64379 -32.5,7.97781 -5.225,1.33403 -14.45,3.59157 -20.5,5.01677 -6.05,1.42519 -12.575,2.98655 -14.5,3.46968 -22.2145,5.57531 -26.1071,6.26429 -33.1614,5.8694 -8.5283,-0.4774 -16.6634,-3.97738 -21.9696,-9.45196 -2.8476,-2.93795 -3.0876,-3.56461 -1.824,-4.76174 1.4682,-1.39103 66.2147,-17.89639 88.455,-22.54923 3.6683,-0.76743 60.3979,-14.87007 68.5,-17.02868 1.925,-0.51288 8.225,-2.04712 14,-3.40944 5.775,-1.36231 13.3893,-3.17247 16.9205,-4.02256 8.8986,-2.14218 11.1105,-4.56313 14.4928,-15.8627 3.8944,-13.01046 4.3336,-14.4382 6.6844,-21.73043 1.1525,-3.575 2.4642,-7.85 2.9149,-9.5 0.4507,-1.65 3.3655,-11.325 6.4774,-21.5 3.1119,-10.175 6.6938,-22.325 7.9598,-27 1.2661,-4.675 3.2133,-11.875 4.3272,-16 1.1138,-4.125 4.2572,-15.375 6.9851,-25 2.728,-9.625 6.197,-22.225 7.7088,-28 1.5118,-5.775 3.1559,-11.85 3.6536,-13.5 1.2632,-4.18856 21.3108,-86.66878 22.8476,-94 0.6917,-3.3 1.6499,-7.35 2.1293,-9 0.814,-2.80186 2.0456,-8.49139 3.8963,-18 0.4282,-2.2 1.9668,-9.4 3.4191,-16 1.4524,-6.6 3.0532,-14.25 3.5575,-17 0.5043,-2.75 1.8548,-9.275 3.0013,-14.5 2.3544,-10.73051 7.0005,-34.02317 9.4745,-47.5 0.9088,-4.95 2.0576,-11.025 2.5531,-13.5 1.598,-7.9827 4.9369,-26.41442 7.1554,-39.5 0.5594,-3.3 1.4276,-7.62721 1.9293,-9.61602 1.9389,-7.68636 0.6299,-18.50473 -3.9787,-32.88398 -3.9989,-12.47655 -1.9044,-24.00345 5.3696,-29.55161 3.0509,-2.32702 3.9005,-2.44839 17.1384,-2.44839 h 13.9283 l 6.3883,3.75 c 8.4306,4.94891 14.1821,12.2503 17.0346,21.62492 1.1924,3.91879 2.5412,8.25008 2.9972,9.62508 0.4561,1.375 1.5953,5.2 2.5316,8.5 0.9363,3.3 2.1102,7.35 2.6088,9 2.8058,9.28621 6.0945,20.44775 6.9242,23.5 1.7142,6.30629 6.0115,20.09549 14.1798,45.5 14.5227,45.16769 20.3853,62.59815 33.8025,100.5 2.8231,7.975 5.9926,17.12201 7.0431,20.3267 1.7786,5.42524 14.0698,38.7062 15.9447,43.1733 0.4616,1.1 2.0437,5.375 3.5156,9.5 3.614,10.12832 17.3989,46.76054 19.0034,50.5 0.7079,1.65 2.4918,6.375 3.9641,10.5 1.4724,4.125 3.0384,8.4 3.48,9.5 0.4417,1.1 1.9492,4.925 3.3501,8.5 11.307,28.85593 24.1728,60.98147 25.3248,63.23551 0.769,1.50453 2.4727,3.00523 3.7862,3.33488 1.3914,0.34923 9.2087,-1.1556 18.7318,-3.6059 8.9891,-2.31289 18.2863,-4.59311 20.6606,-5.06716 2.3742,-0.47404 4.7019,-1.09992 5.1726,-1.39083 0.4707,-0.29092 3.2532,-1.01928 6.1832,-1.61858 2.93,-0.5993 6.9023,-1.47157 8.8273,-1.93838 16.4793,-3.99623 20.6361,-4.51216 26.5716,-3.298 8.1939,1.67612 12.7967,3.78289 17.4507,7.98755 4.5182,4.08186 4.9698,5.99697 1.7277,7.32646 -2.1034,0.86258 -18.2729,4.89271 -42.75,10.65515 -11.3003,2.66036 -14.237,3.38071 -23.5,5.76441 -3.3,0.84921 -11.0973,2.77337 -17.3275,4.2759 -6.2301,1.50254 -11.9912,3.21718 -12.8024,3.81033 -1.2662,0.92587 -0.9572,2.34811 2.1843,10.05355 2.0125,4.93631 4.2861,10.39311 5.0524,12.12623 0.7663,1.73313 1.3932,3.42553 1.3932,3.7609 0,0.33538 0.9529,2.74237 2.1176,5.34887 3.9426,8.82387 5.6141,12.69666 15.8561,36.73911 5.6231,13.2 13.2744,30.75 17.0027,39 3.7284,8.25 9.8176,21.975 13.5318,30.5 3.7141,8.525 8.3223,18.875 10.2404,23 1.9182,4.125 4.7191,10.2 6.2242,13.5 1.5052,3.3 4.0989,8.925 5.7638,12.5 1.6648,3.575 4.0379,8.75 5.2734,11.5 2.8748,6.39874 7.4163,16.13938 13.9872,30 6.6028,13.92809 11.6231,24.58617 16.9571,35.99997 5.0596,10.8265 57.9346,116.57627 59.0001,117.99997 0.7746,1.035 24.7269,47.5416 28.5841,55.5 5.3612,11.0614 5.5933,16.6867 1.0112,24.5055 -1.7869,3.0491 -4.3235,5.4712 -7.8452,7.4909 -4.8429,2.7775 -5.8991,2.9823 -15.2045,2.9475 -7.3407,-0.027 -11.2784,-0.5369 -14.8075,-1.9158 z M 1596.9181,677.25094 c 1.6891,-0.5466 10.721,-2.81677 20.071,-5.04483 23.4511,-5.58827 62.7279,-15.31167 72.5,-17.94814 1.925,-0.51936 8.45,-2.11351 14.5,-3.54256 6.05,-1.42904 15.5,-3.66525 21,-4.96935 5.5,-1.3041 21.025,-5.15462 34.5,-8.55672 13.475,-3.40211 25.85,-6.49739 27.5,-6.87841 2.5424,-0.5871 2.9789,-1.14071 2.8614,-3.62947 -0.1149,-2.43191 -11.2589,-30.75186 -14.4311,-36.67314 -0.5116,-0.95503 -0.9303,-2.18023 -0.9303,-2.72266 0,-0.54243 -1.0746,-3.36103 -2.388,-6.26357 -1.3134,-2.90253 -3.5155,-8.20233 -4.8937,-11.77733 -4.8697,-12.6321 -7.9601,-20.53484 -9.1899,-23.5 -0.6844,-1.65 -3.6,-9.075 -6.4793,-16.5 -6.6563,-17.16516 -6.5672,-16.938 -8.0429,-20.5 -0.6835,-1.65 -1.596,-4.125 -2.0276,-5.5 -0.4316,-1.375 -4.9219,-13.3 -9.9786,-26.5 -5.0566,-13.2 -9.5584,-25.125 -10.004,-26.5 -0.4456,-1.375 -2.689,-7.675 -4.9854,-14 -2.2964,-6.325 -5.0129,-13.975 -6.0366,-17 -1.0238,-3.025 -3.2913,-9.325 -5.0388,-14 -4.0931,-10.94964 -15.4928,-43.73017 -17.9096,-51.5 -3.7269,-11.98147 -7.3266,-22.02939 -8.3619,-23.3403 -0.8667,-1.09758 -1.2943,-1.01769 -2.361,0.44113 -0.7165,0.97978 -1.3027,2.78407 -1.3027,4.00953 0,1.22546 -0.6743,5.07695 -1.4984,8.55887 -1.4531,6.13916 -2.4433,10.68901 -4.4792,20.58077 -2.4982,12.13839 -4.1903,20.03881 -4.9798,23.25 -0.4732,1.925 -1.3331,5.75 -1.9109,8.5 -2.1507,10.23683 -13.6448,58.36129 -16.1218,67.5 -1.1219,4.13936 -4.8084,18.81506 -6.1543,24.5 -2.1937,9.26619 -2.7779,11.56473 -5.8458,23 -1.7706,6.6 -3.5651,13.35 -3.9876,15 -0.4226,1.65 -2.3996,8.85 -4.3934,16 -1.9938,7.15 -4.0639,14.575 -4.6003,16.5 -0.5364,1.925 -1.6701,5.975 -2.5193,9 -1.2986,4.6255 -5.153,18.40348 -8.5323,30.5 -1.5099,5.40474 -3.6893,12.68701 -10.4745,35 -3.6795,12.1 -7.0571,23.35 -7.5057,25 -0.4487,1.65 -1.9278,6.6 -3.2871,11 -1.3592,4.4 -2.2733,8.3375 -2.0314,8.75 0.6252,1.06602 6.1285,0.92841 9.7508,-0.24382 z M 108.19659,1024.6189 c -0.38911,-0.3891 -0.70747,-191.62533 -0.70747,-424.96938 0,-384.35931 0.1478,-424.4097 1.57143,-425.83334 1.41246,-1.41246 14.08286,-1.56372 125.24999,-1.49526 142.52333,0.0878 165.51051,0.79067 192.17857,5.87647 3.025,0.57689 8.2,1.48718 11.5,2.02287 3.3,0.53568 8.7,1.68113 12,2.54545 3.3,0.86431 10.275,2.69612 15.5,4.07068 5.225,1.37456 11.975,3.42953 15,4.5666 3.025,1.13707 8.97951,3.33874 13.23224,4.89259 4.25273,1.55386 10.10273,4.13795 13,5.74243 2.89727,1.60447 8.41776,4.63999 12.26776,6.74559 19.68127,10.76386 47.82305,36.57219 60.108,55.12398 4.0656,6.13956 7.392,11.40322 7.392,11.69703 0,0.29381 1.53565,3.82054 3.41255,7.83717 7.08256,15.15696 12.06248,32.2525 14.50757,49.80298 0.57468,4.125 1.50276,10.73668 2.06238,14.69262 0.55963,3.95595 1.0175,14.5653 1.0175,23.57633 0,35.54757 -5.39265,65.54223 -15.8141,87.96011 -1.60335,3.44902 -3.9637,8.52094 -5.24522,11.27094 -1.94975,4.18396 -7.32816,13.16129 -10.18486,17 -0.4093,0.55 -3.5593,4.825 -7,9.5 -8.84128,12.01296 -22.58563,25.97263 -34.17803,34.71345 -5.45721,4.11481 -10.63221,7.74776 -11.5,8.07321 -0.86778,0.32546 -3.86159,2.04508 -6.65291,3.8214 -10.79381,6.86886 -30.86019,17.48458 -47.1634,24.95085 -2.33119,1.0676 -4.24369,2.28972 -4.25,2.71584 -0.0166,1.11803 3.73847,2.3526 9.48852,3.11961 2.75,0.36683 7.025,1.06268 9.5,1.54634 14.07516,2.75052 17.43616,3.46459 27,5.73636 27.07515,6.43136 44.26726,13.7475 65.5,27.87367 14.55024,9.68029 34.25222,25.97669 43.71638,36.1598 17.26328,18.5747 34.44612,48.62643 40.76157,71.28947 0.6897,2.475 1.63928,5.625 2.11017,7 0.91001,2.65725 2.88434,11.99496 4.96873,23.5 0.78505,4.33315 1.25146,15.3815 1.22425,29 -0.0355,17.74716 -0.4554,24.39441 -2.1723,34.38635 -2.92905,17.04633 -8.42205,37.12332 -13.02695,47.61365 -0.48286,1.1 -1.65843,3.8 -2.61237,6 -20.04817,46.23537 -52.61115,83.56957 -96.96948,111.17787 -12.74177,7.9304 -20.29886,11.8199 -36.66708,18.8718 -33.49463,14.43037 -63.38921,22.37177 -104.33292,27.71577 -15.4602,2.0179 -20.87643,2.1006 -160.54253,2.4522 -79.49839,0.2002 -144.86088,0.046 -145.24999,-0.3435 z m 274.29252,-52.21307 c 5.775,-0.5769 13.2,-1.4927 16.5,-2.0353 3.3,-0.5426 9.375,-1.5241 13.5,-2.1812 11.94946,-1.9035 36.66098,-8.4415 47,-12.435 5.225,-2.0182 11.525,-4.3554 14,-5.1939 8.26728,-2.8007 33.35958,-16.5295 45.84201,-25.0817 44.06787,-30.19273 72.31822,-73.58782 79.24919,-121.73397 3.35696,-23.31917 1.50465,-51.43728 -4.72359,-71.70431 -1.30219,-4.23737 -2.36761,-8.17205 -2.36761,-8.74373 0,-0.57168 -2.01383,-5.52021 -4.47518,-10.99674 -7.42435,-16.51926 -18.05887,-31.647 -30.65326,-43.60466 -5.93371,-5.63372 -24.87336,-20.45056 -26.14097,-20.45056 -0.31093,0 -3.99047,-2.025 -8.17676,-4.5 -4.18628,-2.475 -7.81117,-4.5 -8.05529,-4.5 -0.24413,0 -2.81867,-1.07343 -5.7212,-2.38538 -11.63226,-5.25784 -14.68961,-6.47915 -24.77734,-9.89772 -5.775,-1.95705 -13.425,-4.29782 -17,-5.2017 -3.575,-0.90389 -8.075,-2.04577 -10,-2.53752 -17.38458,-4.44099 -39.95273,-7.85158 -73.5,-11.10762 -14.69981,-1.42674 -215.26942,-2.50064 -216.61028,-1.15978 -0.50989,0.50989 -0.89646,78.47315 -0.90869,183.2671 -0.0171,146.35299 0.22961,182.54699 1.24884,183.22659 1.82114,1.2143 202.90228,0.2424 215.77013,-1.0429 z M 356.18464,553.22072 c 25.00197,-1.99953 54.80524,-8.12652 67.80447,-13.93933 1.1,-0.49188 4.7,-1.84846 8,-3.01462 10.08124,-3.56253 29.46407,-13.93433 39.78876,-21.29106 8.75626,-6.23916 27.02816,-23.06696 32.32521,-29.77041 1.10367,-1.3967 3.88298,-4.91316 6.17623,-7.81434 10.35814,-13.10403 23.65265,-41.61852 26.17743,-56.1462 0.43013,-2.475 1.58194,-8.1 2.55958,-12.5 2.54095,-11.436 2.6984,-50.29313 0.25325,-62.5 -4.5519,-22.72439 -10.62054,-38.21796 -20.56358,-52.5 -5.32669,-7.65119 -24.63169,-25.98352 -34.9267,-33.16693 -30.85,-21.52582 -70.88053,-32.5012 -128.79018,-35.3111 -31.86095,-1.54596 -185.65778,-1.35924 -187.82247,0.22803 -1.59422,1.16896 -1.70464,11.80522 -1.70327,164.07583 8e-4,89.55421 0.25848,163.24171 0.57262,163.75 0.79906,1.29291 173.87009,1.20201 190.14865,-0.0999 z m 641.97114,471.35738 c -0.36667,-0.3667 -0.66667,-191.75168 -0.66667,-425.30001 0,-328.93704 0.27044,-424.90377 1.2,-425.83333 0.87112,-0.87112 8.24849,-1.2 26.91819,-1.2 14.1451,0 26.4301,0.27314 27.3,0.60698 1.439,0.55218 1.5818,39.06377 1.5818,426.5 v 425.89296 h -27.8333 c -15.3083,0 -28.13335,-0.3 -28.50002,-0.6666 z M 2030.1004,588.30384 c -5.2214,-2.10524 -9.6113,-5.60632 -9.6113,-7.6653 0,-2.15752 5.2112,-4.93271 12.5,-6.65682 3.85,-0.91068 11.95,-2.81185 18,-4.22482 16.4329,-3.83786 17.3525,-4.06032 39.5,-9.55563 11.275,-2.79759 22.525,-5.52927 25,-6.07041 2.475,-0.54113 6.075,-1.36248 8,-1.82521 7.379,-1.77377 18.6667,-4.33115 22.5,-5.0977 2.2,-0.43993 7.15,-1.52819 11,-2.41836 8.3188,-1.9234 12.8799,-2.90308 25.3458,-5.44398 9.0232,-1.8392 9.56,-1.84365 15.5557,-0.12903 11.7338,3.35555 15.4809,6.59028 11.8455,10.22569 -1.7193,1.71923 -3.8326,2.36645 -20.247,6.20086 -3.575,0.83512 -15.725,3.73621 -27,6.44686 -19.445,4.67483 -29.1032,6.94145 -54.5,12.79038 -6.05,1.39332 -12.575,2.92624 -14.5,3.40648 -49.9462,12.46045 -55.2498,13.29855 -63.3887,10.01699 z m 491.5558,-45.35785 c -1.1541,-1.39058 -2.4969,-11.75447 -4.1722,-32.20123 -1.9183,-23.4136 -2.3441,-26.70637 -3.6182,-27.98045 -1.0878,-1.08789 -2.8374,-0.97873 -10.0963,0.62994 -18.1195,4.01553 -24.8314,5.95746 -26.558,7.68388 -1.5159,1.51576 -2.6248,5.23087 -6.2303,20.87416 -0.589,2.55515 -4.7017,7.29247 -6.331,7.29247 -2.5046,0 -4.1611,-5.9028 -4.1611,-14.8279 0,-6.01517 -0.4159,-9.27238 -1.275,-9.98537 -0.7012,-0.58198 -3.6363,-1.3714 -6.5224,-1.75425 -2.8861,-0.38286 -5.54,-1.16942 -5.8975,-1.74793 -0.3576,-0.57851 1.2275,-2.66897 3.5224,-4.64546 2.4551,-2.11449 4.1725,-4.46644 4.1725,-5.71416 0,-1.16629 -1.8535,-5.17154 -4.119,-8.90055 -2.2654,-3.72901 -4.3466,-8.47732 -4.6249,-10.5518 -0.4598,-3.4286 -0.2644,-3.83239 2.1483,-4.43793 3.344,-0.83931 7.6488,2.02715 16.5668,11.03152 7.5031,7.57583 8.8675,7.87178 19.0076,4.12286 3.5867,-1.32603 10.5021,-3.87712 15.3675,-5.66908 4.8655,-1.79197 9.0562,-3.80527 9.3129,-4.47401 0.4837,-1.26068 -14.9587,-32.90364 -21.7758,-44.62042 -4.738,-8.1433 -5.3434,-13.82552 -1.4732,-13.82552 2.6671,0 11.8786,6.80253 13.6215,10.05921 2.0267,3.78682 9.8782,7.94079 15.0091,7.94079 5.9735,0 7.9592,2.04734 7.9592,8.20629 0,5.633 1.4353,6.94468 8.2832,7.57017 6.5326,0.59668 7.7168,1.54123 7.7168,6.15485 0,2.02753 0.5893,4.49234 1.3096,5.47734 1.2509,1.71069 1.6876,1.71465 9.75,0.0884 25.9253,-5.22952 27.7019,-5.29618 37.6904,-1.41431 3.7249,1.44761 2.7513,4.71454 -2.9966,10.05455 -5.7985,5.38711 -10.1538,7.70327 -22.6577,12.04964 -9.9209,3.44852 -14.0957,5.48578 -14.0957,6.87862 0,0.55779 0.9,2.77831 2,4.93449 3.1249,6.12515 2.6846,7.44832 -4.0612,12.2056 l -6.0613,4.27451 3.5613,2.85694 c 2.7357,2.19465 3.5577,3.58785 3.5459,6.00994 -0.02,4.09756 -0.6707,4.97181 -5.5376,7.43846 -4.7612,2.41309 -5.5779,3.95541 -7.9762,15.06282 -2.5206,11.67329 -7.0542,17.76854 -10.3038,13.85296 z m -249.4836,-10.53504 c -7.4245,-1.58262 -12.6835,-4.51303 -12.6835,-7.06747 0,-2.39607 6.0852,-4.5697 27.2213,-9.72357 53.3172,-13.00096 59.4618,-14.50522 62.7787,-15.36886 1.925,-0.50123 4.625,-1.12354 6,-1.38293 1.375,-0.25939 5.65,-1.19816 9.5,-2.08615 3.85,-0.88799 9.025,-2.07879 11.5,-2.64621 2.475,-0.56743 7.2155,-1.27127 10.5344,-1.56411 13.5683,-1.19716 26.7191,7.00086 19.1677,11.94878 -2.0504,1.34343 -15.1831,4.83469 -40.7021,10.82041 -14.3223,3.35945 -29.3182,6.92722 -33,7.85126 -7.6186,1.9121 -29.4537,6.89358 -41.6974,9.5129 -8.5625,1.8318 -8.653,1.83037 -18.6191,-0.29405 z"
       id="path1" />
  </g>
</svg>
